M48
; DRILL file {KiCad (5.1.5-0-10_14)} date Sunday, July 19, 2020 at 10:18:50 AM
; FORMAT={-:-/ absolute / inch / decimal}
; #@! TF.CreationDate,2020-07-19T10:18:50-07:00
; #@! TF.GenerationSoftware,Kicad,Pcbnew,(5.1.5-0-10_14)
; #@! TF.FileFunction,NonPlated,1,2,NPTH
FMAT,2
INCH
T1C0.0669
T2C0.1063
T3C0.1575
%
G90
G05
T1
X12.485Y-5.485
X12.885Y-5.485
X12.485Y-3.235
X12.885Y-3.235
X11.735Y-3.985
X12.135Y-3.985
X11.735Y-4.735
X12.135Y-4.735
X10.985Y-4.735
X11.385Y-4.735
X11.735Y-3.235
X12.135Y-3.235
X10.985Y-3.985
X11.385Y-3.985
X12.485Y-4.735
X12.885Y-4.735
X10.985Y-5.485
X11.385Y-5.485
X12.485Y-3.985
X12.885Y-3.985
X11.735Y-5.485
X12.135Y-5.485
X10.985Y-3.235
X11.385Y-3.235
T2
X2.69Y-7.4
X9.5985Y-5.115
X6.6283Y-5.115
X2.69Y-2.67
X13.25Y-2.67
X13.25Y-7.4
T3
X12.685Y-3.985
X11.935Y-3.985
X11.935Y-4.735
X11.185Y-3.985
X11.185Y-5.485
X12.685Y-5.485
X12.685Y-3.235
X11.185Y-4.735
X11.935Y-3.235
X12.685Y-4.735
X11.935Y-5.485
X11.185Y-3.235
T0
M30
