M48
; DRILL file {KiCad (5.1.6)-1} date 07/22/20 15:23:28
; FORMAT={-:-/ absolute / inch / decimal}
; #@! TF.CreationDate,2020-07-22T15:23:28-07:00
; #@! TF.GenerationSoftware,Kicad,Pcbnew,(5.1.6)-1
; #@! TF.FileFunction,Plated,1,2,PTH
FMAT,2
INCH
T1C0.0157
T2C0.0197
T3C0.0315
T4C0.0394
T5C0.0433
T6C0.0591
%
G90
G05
T1
X3.61Y-6.965
X3.865Y-5.195
X4.0283Y-5.2717
X4.1534Y-5.075
X4.575Y-5.175
X4.625Y-5.175
X4.865Y-5.205
X4.935Y-5.385
X6.1834Y-5.1334
X6.835Y-5.115
X6.905Y-5.365
X7.075Y-5.125
X8.8134Y-5.245
X8.845Y-5.205
X8.875Y-5.395
X9.0537Y-5.1537
X9.1034Y-5.0966
X9.815Y-5.225
X10.025Y-5.125
X10.325Y-4.475
X10.475Y-4.625
X10.525Y-6.175
X10.625Y-6.275
X12.0214Y-6.095
T2
X12.095Y-6.495
X12.245Y-6.495
T3
X9.4466Y-6.305
X9.545Y-6.305
X10.6493Y-7.2893
X10.705Y-7.345
X8.455Y-5.455
X8.455Y-5.555
X8.455Y-5.655
X8.455Y-5.755
X8.455Y-5.855
X8.455Y-5.955
X8.455Y-6.055
X8.455Y-6.155
X8.755Y-5.455
X8.755Y-5.555
X8.755Y-5.655
X8.755Y-5.755
X8.755Y-5.855
X8.755Y-5.955
X8.755Y-6.055
X8.755Y-6.155
X9.445Y-5.455
X9.445Y-5.555
X9.445Y-5.655
X9.445Y-5.755
X9.445Y-5.855
X9.445Y-5.955
X9.445Y-6.055
X9.445Y-6.155
X9.745Y-5.455
X9.745Y-5.555
X9.745Y-5.655
X9.745Y-5.755
X9.745Y-5.855
X9.745Y-5.955
X9.745Y-6.055
X9.745Y-6.155
X4.4966Y-6.305
X4.595Y-6.305
X3.505Y-5.455
X3.505Y-5.555
X3.505Y-5.655
X3.505Y-5.755
X3.505Y-5.855
X3.505Y-5.955
X3.505Y-6.055
X3.505Y-6.155
X3.805Y-5.455
X3.805Y-5.555
X3.805Y-5.655
X3.805Y-5.755
X3.805Y-5.855
X3.805Y-5.955
X3.805Y-6.055
X3.805Y-6.155
X6.4766Y-6.305
X6.575Y-6.305
X3.5066Y-6.305
X3.605Y-6.305
X4.495Y-5.455
X4.495Y-5.555
X4.495Y-5.655
X4.495Y-5.755
X4.495Y-5.855
X4.495Y-5.955
X4.495Y-6.055
X4.495Y-6.155
X4.795Y-5.455
X4.795Y-5.555
X4.795Y-5.655
X4.795Y-5.755
X4.795Y-5.855
X4.795Y-5.955
X4.795Y-6.055
X4.795Y-6.155
X6.475Y-5.455
X6.475Y-5.555
X6.475Y-5.655
X6.475Y-5.755
X6.475Y-5.855
X6.475Y-5.955
X6.475Y-6.055
X6.475Y-6.155
X6.775Y-5.455
X6.775Y-5.555
X6.775Y-5.655
X6.775Y-5.755
X6.775Y-5.855
X6.775Y-5.955
X6.775Y-6.055
X6.775Y-6.155
X8.4566Y-6.305
X8.555Y-6.305
T4
X6.035Y-5.415
X6.1334Y-5.415
X6.2319Y-5.415
X9.005Y-3.435
X9.1034Y-3.435
X9.2019Y-3.435
X7.025Y-7.395
X7.1234Y-7.395
X7.2219Y-7.395
X5.045Y-4.425
X5.1434Y-4.425
X5.2419Y-4.425
X3.065Y-4.425
X3.1634Y-4.425
X3.2619Y-4.425
X3.065Y-6.405
X3.1634Y-6.405
X3.2619Y-6.405
X9.005Y-6.405
X9.1034Y-6.405
X9.2019Y-6.405
X8.015Y-5.415
X8.1134Y-5.415
X8.2119Y-5.415
X6.035Y-3.435
X6.1334Y-3.435
X6.2319Y-3.435
X5.045Y-7.395
X5.1434Y-7.395
X5.2419Y-7.395
X5.045Y-5.415
X5.1434Y-5.415
X5.2419Y-5.415
X3.065Y-7.395
X3.1634Y-7.395
X3.2619Y-7.395
X3.065Y-5.415
X3.1634Y-5.415
X3.2619Y-5.415
X9.995Y-5.415
X10.0934Y-5.415
X10.1919Y-5.415
X9.005Y-7.395
X9.1034Y-7.395
X9.2019Y-7.395
X9.995Y-4.425
X10.0934Y-4.425
X10.1919Y-4.425
X5.045Y-3.435
X5.1434Y-3.435
X5.2419Y-3.435
X7.025Y-6.405
X7.1234Y-6.405
X7.2219Y-6.405
X4.055Y-6.405
X4.1534Y-6.405
X4.2519Y-6.405
X3.065Y-3.435
X3.1634Y-3.435
X3.2619Y-3.435
X9.005Y-5.415
X9.1034Y-5.415
X9.2019Y-5.415
X12.585Y-7.395
X12.6834Y-7.395
X12.7819Y-7.395
X9.995Y-3.435
X10.0934Y-3.435
X10.1919Y-3.435
X7.025Y-3.435
X7.1234Y-3.435
X7.2219Y-3.435
X8.015Y-3.435
X8.1134Y-3.435
X8.2119Y-3.435
X6.035Y-7.395
X6.1334Y-7.395
X6.2319Y-7.395
X4.055Y-7.395
X4.1534Y-7.395
X4.2519Y-7.395
X7.025Y-5.415
X7.1234Y-5.415
X7.2219Y-5.415
X6.035Y-4.425
X6.1334Y-4.425
X6.2319Y-4.425
X4.055Y-3.435
X4.1534Y-3.435
X4.2519Y-3.435
X5.045Y-6.405
X5.1434Y-6.405
X5.2419Y-6.405
X8.015Y-6.405
X8.1134Y-6.405
X8.2119Y-6.405
X6.035Y-6.405
X6.1334Y-6.405
X6.2319Y-6.405
X8.015Y-7.395
X8.1134Y-7.395
X8.2119Y-7.395
X8.015Y-4.425
X8.1134Y-4.425
X8.2119Y-4.425
X4.055Y-4.425
X4.1534Y-4.425
X4.2519Y-4.425
X9.995Y-7.395
X10.0934Y-7.395
X10.1919Y-7.395
X9.005Y-4.425
X9.1034Y-4.425
X9.2019Y-4.425
X9.995Y-6.405
X10.0934Y-6.405
X10.1919Y-6.405
X7.025Y-4.425
X7.1234Y-4.425
X7.2219Y-4.425
X4.055Y-5.415
X4.1534Y-5.415
X4.2519Y-5.415
T5
X11.845Y-6.195
X11.845Y-6.795
X11.945Y-6.195
X11.945Y-6.295
X11.945Y-6.795
X12.045Y-6.195
X12.045Y-6.795
X12.145Y-6.195
X12.145Y-6.295
X12.145Y-6.795
X12.245Y-6.195
X12.245Y-6.295
X12.245Y-6.795
X12.345Y-6.195
X12.345Y-6.295
X12.345Y-6.795
X12.445Y-6.195
X12.445Y-6.795
X12.545Y-6.195
X12.545Y-6.795
X12.645Y-6.195
X12.645Y-6.795
X12.745Y-6.195
X12.745Y-6.795
X12.845Y-6.195
X12.845Y-6.795
X12.945Y-6.195
X12.945Y-6.795
X13.045Y-6.195
X13.045Y-6.795
X13.145Y-6.195
X13.145Y-6.295
X13.145Y-6.395
X13.145Y-6.495
X13.145Y-6.595
X13.145Y-6.695
X13.145Y-6.795
T6
X11.035Y-3.885
X11.285Y-3.785
X11.785Y-4.635
X12.035Y-4.535
X11.035Y-4.635
X11.285Y-4.535
X12.535Y-3.885
X12.785Y-3.785
X12.535Y-3.135
X12.785Y-3.035
X11.035Y-5.385
X11.285Y-5.285
X11.785Y-3.135
X12.035Y-3.035
X12.535Y-5.385
X12.785Y-5.285
X12.535Y-4.635
X12.785Y-4.535
X11.035Y-3.135
X11.285Y-3.035
X11.785Y-3.885
X12.035Y-3.785
X11.785Y-5.385
X12.035Y-5.285
T5
G00X8.9144Y-3.1535
M15
G01X8.9144Y-3.1259
M16
G05
G00X9.2924Y-3.1535
M15
G01X9.2924Y-3.1259
M16
G05
G00X6.9344Y-7.1135
M15
G01X6.9344Y-7.0859
M16
G05
G00X7.3124Y-7.1135
M15
G01X7.3124Y-7.0859
M16
G05
G00X4.9544Y-4.1435
M15
G01X4.9544Y-4.1159
M16
G05
G00X5.3324Y-4.1435
M15
G01X5.3324Y-4.1159
M16
G05
G00X2.9744Y-4.1435
M15
G01X2.9744Y-4.1159
M16
G05
G00X3.3524Y-4.1435
M15
G01X3.3524Y-4.1159
M16
G05
G00X2.9744Y-6.1235
M15
G01X2.9744Y-6.0959
M16
G05
G00X3.3524Y-6.1235
M15
G01X3.3524Y-6.0959
M16
G05
G00X8.9144Y-6.1235
M15
G01X8.9144Y-6.0959
M16
G05
G00X9.2924Y-6.1235
M15
G01X9.2924Y-6.0959
M16
G05
G00X7.9244Y-5.1335
M15
G01X7.9244Y-5.1059
M16
G05
G00X8.3024Y-5.1335
M15
G01X8.3024Y-5.1059
M16
G05
G00X5.9444Y-3.1535
M15
G01X5.9444Y-3.1259
M16
G05
G00X6.3224Y-3.1535
M15
G01X6.3224Y-3.1259
M16
G05
G00X4.9544Y-7.1135
M15
G01X4.9544Y-7.0859
M16
G05
G00X5.3324Y-7.1135
M15
G01X5.3324Y-7.0859
M16
G05
G00X4.9544Y-5.1335
M15
G01X4.9544Y-5.1059
M16
G05
G00X5.3324Y-5.1335
M15
G01X5.3324Y-5.1059
M16
G05
G00X2.9744Y-7.1135
M15
G01X2.9744Y-7.0859
M16
G05
G00X3.3524Y-7.1135
M15
G01X3.3524Y-7.0859
M16
G05
G00X2.9744Y-5.1335
M15
G01X2.9744Y-5.1059
M16
G05
G00X3.3524Y-5.1335
M15
G01X3.3524Y-5.1059
M16
G05
G00X9.9044Y-5.1335
M15
G01X9.9044Y-5.1059
M16
G05
G00X10.2824Y-5.1335
M15
G01X10.2824Y-5.1059
M16
G05
G00X8.9144Y-7.1135
M15
G01X8.9144Y-7.0859
M16
G05
G00X9.2924Y-7.1135
M15
G01X9.2924Y-7.0859
M16
G05
G00X9.9044Y-4.1435
M15
G01X9.9044Y-4.1159
M16
G05
G00X10.2824Y-4.1435
M15
G01X10.2824Y-4.1159
M16
G05
G00X4.9544Y-3.1535
M15
G01X4.9544Y-3.1259
M16
G05
G00X5.3324Y-3.1535
M15
G01X5.3324Y-3.1259
M16
G05
G00X6.9344Y-6.1235
M15
G01X6.9344Y-6.0959
M16
G05
G00X7.3124Y-6.1235
M15
G01X7.3124Y-6.0959
M16
G05
G00X3.9644Y-6.1235
M15
G01X3.9644Y-6.0959
M16
G05
G00X4.3424Y-6.1235
M15
G01X4.3424Y-6.0959
M16
G05
G00X2.9744Y-3.1535
M15
G01X2.9744Y-3.1259
M16
G05
G00X3.3524Y-3.1535
M15
G01X3.3524Y-3.1259
M16
G05
G00X8.9144Y-5.1335
M15
G01X8.9144Y-5.1059
M16
G05
G00X9.2924Y-5.1335
M15
G01X9.2924Y-5.1059
M16
G05
G00X12.4944Y-7.1135
M15
G01X12.4944Y-7.0859
M16
G05
G00X12.8724Y-7.1135
M15
G01X12.8724Y-7.0859
M16
G05
G00X9.9044Y-3.1535
M15
G01X9.9044Y-3.1259
M16
G05
G00X10.2824Y-3.1535
M15
G01X10.2824Y-3.1259
M16
G05
G00X6.9344Y-3.1535
M15
G01X6.9344Y-3.1259
M16
G05
G00X7.3124Y-3.1535
M15
G01X7.3124Y-3.1259
M16
G05
G00X7.9244Y-3.1535
M15
G01X7.9244Y-3.1259
M16
G05
G00X8.3024Y-3.1535
M15
G01X8.3024Y-3.1259
M16
G05
G00X5.9444Y-7.1135
M15
G01X5.9444Y-7.0859
M16
G05
G00X6.3224Y-7.1135
M15
G01X6.3224Y-7.0859
M16
G05
G00X3.9644Y-7.1135
M15
G01X3.9644Y-7.0859
M16
G05
G00X4.3424Y-7.1135
M15
G01X4.3424Y-7.0859
M16
G05
G00X6.9344Y-5.1335
M15
G01X6.9344Y-5.1059
M16
G05
G00X7.3124Y-5.1335
M15
G01X7.3124Y-5.1059
M16
G05
G00X5.9444Y-4.1435
M15
G01X5.9444Y-4.1159
M16
G05
G00X6.3224Y-4.1435
M15
G01X6.3224Y-4.1159
M16
G05
G00X3.9644Y-3.1535
M15
G01X3.9644Y-3.1259
M16
G05
G00X4.3424Y-3.1535
M15
G01X4.3424Y-3.1259
M16
G05
G00X4.9544Y-6.1235
M15
G01X4.9544Y-6.0959
M16
G05
G00X5.3324Y-6.1235
M15
G01X5.3324Y-6.0959
M16
G05
G00X7.9244Y-6.1235
M15
G01X7.9244Y-6.0959
M16
G05
G00X8.3024Y-6.1235
M15
G01X8.3024Y-6.0959
M16
G05
G00X5.9444Y-6.1235
M15
G01X5.9444Y-6.0959
M16
G05
G00X6.3224Y-6.1235
M15
G01X6.3224Y-6.0959
M16
G05
G00X7.9244Y-7.1135
M15
G01X7.9244Y-7.0859
M16
G05
G00X8.3024Y-7.1135
M15
G01X8.3024Y-7.0859
M16
G05
G00X7.9244Y-4.1435
M15
G01X7.9244Y-4.1159
M16
G05
G00X8.3024Y-4.1435
M15
G01X8.3024Y-4.1159
M16
G05
G00X3.9644Y-4.1435
M15
G01X3.9644Y-4.1159
M16
G05
G00X4.3424Y-4.1435
M15
G01X4.3424Y-4.1159
M16
G05
G00X9.9044Y-7.1135
M15
G01X9.9044Y-7.0859
M16
G05
G00X10.2824Y-7.1135
M15
G01X10.2824Y-7.0859
M16
G05
G00X8.9144Y-4.1435
M15
G01X8.9144Y-4.1159
M16
G05
G00X9.2924Y-4.1435
M15
G01X9.2924Y-4.1159
M16
G05
G00X9.9044Y-6.1235
M15
G01X9.9044Y-6.0959
M16
G05
G00X10.2824Y-6.1235
M15
G01X10.2824Y-6.0959
M16
G05
G00X6.9344Y-4.1435
M15
G01X6.9344Y-4.1159
M16
G05
G00X7.3124Y-4.1435
M15
G01X7.3124Y-4.1159
M16
G05
G00X3.9644Y-5.1335
M15
G01X3.9644Y-5.1059
M16
G05
G00X4.3424Y-5.1335
M15
G01X4.3424Y-5.1059
M16
G05
G00X5.9444Y-5.1335
M15
G01X5.9444Y-5.1059
M16
G05
G00X6.3224Y-5.1335
M15
G01X6.3224Y-5.1059
M16
G05
T0
M30
