M48
; DRILL file {KiCad (5.1.6)-1} date 07/22/20 15:23:28
; FORMAT={-:-/ absolute / inch / decimal}
; #@! TF.CreationDate,2020-07-22T15:23:28-07:00
; #@! TF.GenerationSoftware,Kicad,Pcbnew,(5.1.6)-1
; #@! TF.FileFunction,NonPlated,1,2,NPTH
FMAT,2
INCH
T1C0.0669
T2C0.1063
T3C0.1575
%
G90
G05
T1
X11.735Y-5.485
X11.735Y-4.735
X10.985Y-4.735
X11.385Y-4.735
X12.485Y-3.985
X12.885Y-3.985
X12.485Y-3.235
X12.885Y-3.235
X10.985Y-5.485
X11.385Y-5.485
X11.735Y-3.235
X12.135Y-3.235
X12.485Y-5.485
X12.885Y-5.485
X12.485Y-4.735
X12.885Y-4.735
X10.985Y-3.235
X11.385Y-3.235
X11.735Y-3.985
X12.135Y-3.985
X12.135Y-5.485
X10.985Y-3.985
X11.385Y-3.985
X12.135Y-4.735
T2
X13.25Y-7.4
X2.69Y-7.4
X7.6185Y-2.67
X13.25Y-2.67
X7.6185Y-7.4
X10.5915Y-5.1197
X2.69Y-2.67
T3
X11.185Y-3.985
X11.935Y-4.735
X11.185Y-4.735
X12.685Y-3.985
X12.685Y-3.235
X11.185Y-5.485
X11.935Y-3.235
X12.685Y-5.485
X12.685Y-4.735
X11.185Y-3.235
X11.935Y-3.985
X11.935Y-5.485
T0
M30
