G04 #@! TF.GenerationSoftware,KiCad,Pcbnew,(5.1.6)-1*
G04 #@! TF.CreationDate,2020-07-21T13:53:38-07:00*
G04 #@! TF.ProjectId,MIDI Mixer One v03,4d494449-204d-4697-9865-72204f6e6520,v1.0.0*
G04 #@! TF.SameCoordinates,Original*
G04 #@! TF.FileFunction,Copper,L1,Top*
G04 #@! TF.FilePolarity,Positive*
%FSLAX46Y46*%
G04 Gerber Fmt 4.6, Leading zero omitted, Abs format (unit mm)*
G04 Created by KiCad (PCBNEW (5.1.6)-1) date 2020-07-21 13:53:38*
%MOMM*%
%LPD*%
G01*
G04 APERTURE LIST*
G04 #@! TA.AperFunction,ComponentPad*
%ADD10R,1.800000X1.800000*%
G04 #@! TD*
G04 #@! TA.AperFunction,ComponentPad*
%ADD11C,1.800000*%
G04 #@! TD*
G04 #@! TA.AperFunction,ComponentPad*
%ADD12O,2.720000X3.240000*%
G04 #@! TD*
G04 #@! TA.AperFunction,ComponentPad*
%ADD13O,1.600000X1.600000*%
G04 #@! TD*
G04 #@! TA.AperFunction,ComponentPad*
%ADD14R,1.600000X1.600000*%
G04 #@! TD*
G04 #@! TA.AperFunction,ComponentPad*
%ADD15C,2.200000*%
G04 #@! TD*
G04 #@! TA.AperFunction,ComponentPad*
%ADD16C,1.600000*%
G04 #@! TD*
G04 #@! TA.AperFunction,ComponentPad*
%ADD17C,0.100000*%
G04 #@! TD*
G04 #@! TA.AperFunction,ComponentPad*
%ADD18C,1.900000*%
G04 #@! TD*
G04 #@! TA.AperFunction,ViaPad*
%ADD19C,0.800000*%
G04 #@! TD*
G04 #@! TA.AperFunction,Conductor*
%ADD20C,0.609600*%
G04 #@! TD*
G04 #@! TA.AperFunction,Conductor*
%ADD21C,0.254000*%
G04 #@! TD*
G04 APERTURE END LIST*
D10*
X228727000Y-137541000D03*
D11*
X231227000Y-137541000D03*
X233727000Y-137541000D03*
D12*
X236027000Y-130041000D03*
X226427000Y-130041000D03*
D13*
X214757000Y-156337000D03*
X222377000Y-138557000D03*
X214757000Y-153797000D03*
X222377000Y-141097000D03*
X214757000Y-151257000D03*
X222377000Y-143637000D03*
X214757000Y-148717000D03*
X222377000Y-146177000D03*
X214757000Y-146177000D03*
X222377000Y-148717000D03*
X214757000Y-143637000D03*
X222377000Y-151257000D03*
X214757000Y-141097000D03*
X222377000Y-153797000D03*
X214757000Y-138557000D03*
D14*
X222377000Y-156337000D03*
D10*
X203581000Y-162687000D03*
D11*
X206081000Y-162687000D03*
X208581000Y-162687000D03*
D12*
X210881000Y-155187000D03*
X201281000Y-155187000D03*
D10*
X153289000Y-137541000D03*
D11*
X155789000Y-137541000D03*
X158289000Y-137541000D03*
D12*
X160589000Y-130041000D03*
X150989000Y-130041000D03*
D10*
X178435000Y-137541000D03*
D11*
X180935000Y-137541000D03*
X183435000Y-137541000D03*
D12*
X185735000Y-130041000D03*
X176135000Y-130041000D03*
D10*
X153289000Y-162687000D03*
D11*
X155789000Y-162687000D03*
X158289000Y-162687000D03*
D12*
X160589000Y-155187000D03*
X150989000Y-155187000D03*
D13*
X164465000Y-156337000D03*
X172085000Y-138557000D03*
X164465000Y-153797000D03*
X172085000Y-141097000D03*
X164465000Y-151257000D03*
X172085000Y-143637000D03*
X164465000Y-148717000D03*
X172085000Y-146177000D03*
X164465000Y-146177000D03*
X172085000Y-148717000D03*
X164465000Y-143637000D03*
X172085000Y-151257000D03*
X164465000Y-141097000D03*
X172085000Y-153797000D03*
X164465000Y-138557000D03*
D14*
X172085000Y-156337000D03*
D13*
X89027000Y-156337000D03*
X96647000Y-138557000D03*
X89027000Y-153797000D03*
X96647000Y-141097000D03*
X89027000Y-151257000D03*
X96647000Y-143637000D03*
X89027000Y-148717000D03*
X96647000Y-146177000D03*
X89027000Y-146177000D03*
X96647000Y-148717000D03*
X89027000Y-143637000D03*
X96647000Y-151257000D03*
X89027000Y-141097000D03*
X96647000Y-153797000D03*
X89027000Y-138557000D03*
D14*
X96647000Y-156337000D03*
D10*
X253873000Y-137541000D03*
D11*
X256373000Y-137541000D03*
X258873000Y-137541000D03*
D12*
X261173000Y-130041000D03*
X251573000Y-130041000D03*
D15*
X318389000Y-136779000D03*
X324739000Y-134239000D03*
D16*
X164505000Y-160147000D03*
X167005000Y-160147000D03*
X114213000Y-160147000D03*
X116713000Y-160147000D03*
X89067000Y-160147000D03*
X91567000Y-160147000D03*
X239943000Y-160147000D03*
X242443000Y-160147000D03*
X214797000Y-160147000D03*
X217297000Y-160147000D03*
X270492786Y-185148786D03*
G04 #@! TA.AperFunction,ComponentPad*
D17*
G36*
X273038371Y-186563000D02*
G01*
X271907000Y-187694371D01*
X270775629Y-186563000D01*
X271907000Y-185431629D01*
X273038371Y-186563000D01*
G37*
G04 #@! TD.AperFunction*
D18*
X307213000Y-164973000D03*
X311023000Y-164973000D03*
D14*
X300863000Y-172593000D03*
D16*
X303403000Y-172593000D03*
X305943000Y-172593000D03*
X308483000Y-172593000D03*
X311023000Y-172593000D03*
X313563000Y-172593000D03*
X316103000Y-172593000D03*
X318643000Y-172593000D03*
X321183000Y-172593000D03*
X323723000Y-172593000D03*
X326263000Y-172593000D03*
X328803000Y-172593000D03*
X331343000Y-172593000D03*
X313563000Y-159893000D03*
X311023000Y-159893000D03*
X308483000Y-159893000D03*
X303403000Y-159893000D03*
X300863000Y-157353000D03*
X303403000Y-157353000D03*
X305943000Y-157353000D03*
X308483000Y-157353000D03*
X311023000Y-157353000D03*
X313563000Y-157353000D03*
X316103000Y-157353000D03*
X318643000Y-157353000D03*
X321183000Y-157353000D03*
X323723000Y-157353000D03*
X326263000Y-157353000D03*
X328803000Y-157353000D03*
X331343000Y-157353000D03*
X333883000Y-172593000D03*
X333883000Y-170053000D03*
X333883000Y-167513000D03*
X333883000Y-157353000D03*
X333883000Y-159893000D03*
X333883000Y-162433000D03*
X333883000Y-164973000D03*
D13*
X239903000Y-156337000D03*
X247523000Y-138557000D03*
X239903000Y-153797000D03*
X247523000Y-141097000D03*
X239903000Y-151257000D03*
X247523000Y-143637000D03*
X239903000Y-148717000D03*
X247523000Y-146177000D03*
X239903000Y-146177000D03*
X247523000Y-148717000D03*
X239903000Y-143637000D03*
X247523000Y-151257000D03*
X239903000Y-141097000D03*
X247523000Y-153797000D03*
X239903000Y-138557000D03*
D14*
X247523000Y-156337000D03*
D15*
X318389000Y-117729000D03*
X324739000Y-115189000D03*
X299339000Y-136779000D03*
X305689000Y-134239000D03*
X280289000Y-117729000D03*
X286639000Y-115189000D03*
X280289000Y-136779000D03*
X286639000Y-134239000D03*
D10*
X153289000Y-187833000D03*
D11*
X155789000Y-187833000D03*
X158289000Y-187833000D03*
D12*
X160589000Y-180333000D03*
X150989000Y-180333000D03*
D13*
X114173000Y-156337000D03*
X121793000Y-138557000D03*
X114173000Y-153797000D03*
X121793000Y-141097000D03*
X114173000Y-151257000D03*
X121793000Y-143637000D03*
X114173000Y-148717000D03*
X121793000Y-146177000D03*
X114173000Y-146177000D03*
X121793000Y-148717000D03*
X114173000Y-143637000D03*
X121793000Y-151257000D03*
X114173000Y-141097000D03*
X121793000Y-153797000D03*
X114173000Y-138557000D03*
D14*
X121793000Y-156337000D03*
D15*
X299339000Y-117729000D03*
X305689000Y-115189000D03*
X318389000Y-98679000D03*
X324739000Y-96139000D03*
X299339000Y-98679000D03*
X305689000Y-96139000D03*
X280289000Y-98679000D03*
X286639000Y-96139000D03*
X318389000Y-79629000D03*
X324739000Y-77089000D03*
X299339000Y-79629000D03*
X305689000Y-77089000D03*
X280289000Y-79629000D03*
X286639000Y-77089000D03*
D12*
X317359000Y-180333000D03*
X326959000Y-180333000D03*
D11*
X324659000Y-187833000D03*
X322159000Y-187833000D03*
D10*
X319659000Y-187833000D03*
X253873000Y-187833000D03*
D11*
X256373000Y-187833000D03*
X258873000Y-187833000D03*
D12*
X261173000Y-180333000D03*
X251573000Y-180333000D03*
D10*
X253873000Y-162687000D03*
D11*
X256373000Y-162687000D03*
X258873000Y-162687000D03*
D12*
X261173000Y-155187000D03*
X251573000Y-155187000D03*
D10*
X253873000Y-112395000D03*
D11*
X256373000Y-112395000D03*
X258873000Y-112395000D03*
D12*
X261173000Y-104895000D03*
X251573000Y-104895000D03*
D10*
X253873000Y-87249000D03*
D11*
X256373000Y-87249000D03*
X258873000Y-87249000D03*
D12*
X261173000Y-79749000D03*
X251573000Y-79749000D03*
D10*
X228727000Y-187833000D03*
D11*
X231227000Y-187833000D03*
X233727000Y-187833000D03*
D12*
X236027000Y-180333000D03*
X226427000Y-180333000D03*
D10*
X228727000Y-162687000D03*
D11*
X231227000Y-162687000D03*
X233727000Y-162687000D03*
D12*
X236027000Y-155187000D03*
X226427000Y-155187000D03*
D10*
X228727000Y-112395000D03*
D11*
X231227000Y-112395000D03*
X233727000Y-112395000D03*
D12*
X236027000Y-104895000D03*
X226427000Y-104895000D03*
D10*
X228727000Y-87249000D03*
D11*
X231227000Y-87249000D03*
X233727000Y-87249000D03*
D12*
X236027000Y-79749000D03*
X226427000Y-79749000D03*
D10*
X203581000Y-187833000D03*
D11*
X206081000Y-187833000D03*
X208581000Y-187833000D03*
D12*
X210881000Y-180333000D03*
X201281000Y-180333000D03*
D10*
X203581000Y-137541000D03*
D11*
X206081000Y-137541000D03*
X208581000Y-137541000D03*
D12*
X210881000Y-130041000D03*
X201281000Y-130041000D03*
D10*
X203581000Y-112395000D03*
D11*
X206081000Y-112395000D03*
X208581000Y-112395000D03*
D12*
X210881000Y-104895000D03*
X201281000Y-104895000D03*
D10*
X203581000Y-87249000D03*
D11*
X206081000Y-87249000D03*
X208581000Y-87249000D03*
D12*
X210881000Y-79749000D03*
X201281000Y-79749000D03*
D10*
X178435000Y-187833000D03*
D11*
X180935000Y-187833000D03*
X183435000Y-187833000D03*
D12*
X185735000Y-180333000D03*
X176135000Y-180333000D03*
D10*
X178435000Y-162687000D03*
D11*
X180935000Y-162687000D03*
X183435000Y-162687000D03*
D12*
X185735000Y-155187000D03*
X176135000Y-155187000D03*
D10*
X178435000Y-112395000D03*
D11*
X180935000Y-112395000D03*
X183435000Y-112395000D03*
D12*
X185735000Y-104895000D03*
X176135000Y-104895000D03*
D10*
X178435000Y-87249000D03*
D11*
X180935000Y-87249000D03*
X183435000Y-87249000D03*
D12*
X185735000Y-79749000D03*
X176135000Y-79749000D03*
D10*
X153289000Y-112395000D03*
D11*
X155789000Y-112395000D03*
X158289000Y-112395000D03*
D12*
X160589000Y-104895000D03*
X150989000Y-104895000D03*
D10*
X153289000Y-87249000D03*
D11*
X155789000Y-87249000D03*
X158289000Y-87249000D03*
D12*
X160589000Y-79749000D03*
X150989000Y-79749000D03*
D10*
X128143000Y-187833000D03*
D11*
X130643000Y-187833000D03*
X133143000Y-187833000D03*
D12*
X135443000Y-180333000D03*
X125843000Y-180333000D03*
D10*
X128143000Y-162687000D03*
D11*
X130643000Y-162687000D03*
X133143000Y-162687000D03*
D12*
X135443000Y-155187000D03*
X125843000Y-155187000D03*
D10*
X128143000Y-137541000D03*
D11*
X130643000Y-137541000D03*
X133143000Y-137541000D03*
D12*
X135443000Y-130041000D03*
X125843000Y-130041000D03*
D10*
X128143000Y-112395000D03*
D11*
X130643000Y-112395000D03*
X133143000Y-112395000D03*
D12*
X135443000Y-104895000D03*
X125843000Y-104895000D03*
D10*
X128143000Y-87249000D03*
D11*
X130643000Y-87249000D03*
X133143000Y-87249000D03*
D12*
X135443000Y-79749000D03*
X125843000Y-79749000D03*
D10*
X102997000Y-187833000D03*
D11*
X105497000Y-187833000D03*
X107997000Y-187833000D03*
D12*
X110297000Y-180333000D03*
X100697000Y-180333000D03*
D10*
X102997000Y-162687000D03*
D11*
X105497000Y-162687000D03*
X107997000Y-162687000D03*
D12*
X110297000Y-155187000D03*
X100697000Y-155187000D03*
D10*
X102997000Y-137541000D03*
D11*
X105497000Y-137541000D03*
X107997000Y-137541000D03*
D12*
X110297000Y-130041000D03*
X100697000Y-130041000D03*
D10*
X102997000Y-112395000D03*
D11*
X105497000Y-112395000D03*
X107997000Y-112395000D03*
D12*
X110297000Y-104895000D03*
X100697000Y-104895000D03*
D10*
X102997000Y-87249000D03*
D11*
X105497000Y-87249000D03*
X107997000Y-87249000D03*
D12*
X110297000Y-79749000D03*
X100697000Y-79749000D03*
D10*
X77851000Y-187833000D03*
D11*
X80351000Y-187833000D03*
X82851000Y-187833000D03*
D12*
X85151000Y-180333000D03*
X75551000Y-180333000D03*
D10*
X77851000Y-162687000D03*
D11*
X80351000Y-162687000D03*
X82851000Y-162687000D03*
D12*
X85151000Y-155187000D03*
X75551000Y-155187000D03*
D10*
X77851000Y-137541000D03*
D11*
X80351000Y-137541000D03*
X82851000Y-137541000D03*
D12*
X85151000Y-130041000D03*
X75551000Y-130041000D03*
D10*
X77851000Y-112395000D03*
D11*
X80351000Y-112395000D03*
X82851000Y-112395000D03*
D12*
X85151000Y-104895000D03*
X75551000Y-104895000D03*
D10*
X77851000Y-87249000D03*
D11*
X80351000Y-87249000D03*
X82851000Y-87249000D03*
D12*
X85151000Y-79749000D03*
X75551000Y-79749000D03*
D19*
X262255000Y-113665000D03*
X267335000Y-156845000D03*
X269875000Y-159385000D03*
X266065000Y-117475000D03*
X305426670Y-155329330D03*
X225425000Y-136525000D03*
X175387000Y-136525000D03*
X125095000Y-136525000D03*
X102317979Y-133902021D03*
X91694000Y-176911000D03*
X98806000Y-132334000D03*
X105497000Y-128416000D03*
X117475000Y-131445000D03*
X116205000Y-131445000D03*
X123825000Y-131445000D03*
X173355000Y-130175000D03*
X179705000Y-130175000D03*
X224155000Y-128905000D03*
X223861000Y-130175000D03*
X229965201Y-130905201D03*
X231227000Y-129453000D03*
X249555000Y-131261010D03*
X254635000Y-130175000D03*
X157058799Y-130388799D03*
D20*
X271907000Y-186309000D02*
X271907000Y-186563000D01*
X300863000Y-157353000D02*
X271907000Y-186309000D01*
X268859000Y-189611000D02*
X268097000Y-189611000D01*
X271907000Y-186563000D02*
X268859000Y-189611000D01*
X268605000Y-189611000D02*
X268097000Y-189611000D01*
X164465000Y-160107000D02*
X164505000Y-160147000D01*
X164465000Y-156337000D02*
X164465000Y-160107000D01*
X239903000Y-160107000D02*
X239943000Y-160147000D01*
X239903000Y-156337000D02*
X239903000Y-160107000D01*
X214757000Y-160107000D02*
X214797000Y-160147000D01*
X214757000Y-156337000D02*
X214757000Y-160107000D01*
X114173000Y-160107000D02*
X114213000Y-160147000D01*
X114173000Y-156337000D02*
X114173000Y-160107000D01*
X89027000Y-160107000D02*
X89067000Y-160147000D01*
X89027000Y-156337000D02*
X89027000Y-160107000D01*
X89067000Y-161278370D02*
X89067000Y-160147000D01*
X89067000Y-176617402D02*
X89067000Y-161278370D01*
X102060598Y-189611000D02*
X89067000Y-176617402D01*
X114213000Y-181777000D02*
X122047000Y-189611000D01*
X122047000Y-189611000D02*
X102060598Y-189611000D01*
X114213000Y-160147000D02*
X114213000Y-181777000D01*
X167005000Y-189611000D02*
X122047000Y-189611000D01*
X164505000Y-181777000D02*
X172339000Y-189611000D01*
X172339000Y-189611000D02*
X167005000Y-189611000D01*
X164505000Y-160147000D02*
X164505000Y-181777000D01*
X214797000Y-160147000D02*
X214797000Y-181777000D01*
X214797000Y-181777000D02*
X222631000Y-189611000D01*
X239943000Y-181777000D02*
X247777000Y-189611000D01*
X239943000Y-160147000D02*
X239943000Y-181777000D01*
X247777000Y-189611000D02*
X222631000Y-189611000D01*
X268097000Y-189611000D02*
X247777000Y-189611000D01*
X194945000Y-183515000D02*
X201041000Y-189611000D01*
X192405000Y-183515000D02*
X194945000Y-183515000D01*
X186309000Y-189611000D02*
X192405000Y-183515000D01*
X201041000Y-189611000D02*
X222631000Y-189611000D01*
X172339000Y-189611000D02*
X186309000Y-189611000D01*
X267335000Y-156845000D02*
X269875000Y-159385000D01*
X262255000Y-113665000D02*
X266065000Y-117475000D01*
X322119000Y-185293000D02*
X324659000Y-187833000D01*
X308229000Y-185293000D02*
X322119000Y-185293000D01*
X305943000Y-157353000D02*
X305943000Y-159639000D01*
X298831000Y-175895000D02*
X308229000Y-185293000D01*
X305943000Y-159639000D02*
X298831000Y-166751000D01*
X298831000Y-166751000D02*
X298831000Y-175895000D01*
D21*
X286639000Y-134239000D02*
X297846799Y-145446799D01*
X303403000Y-171461630D02*
X303403000Y-172593000D01*
X303403000Y-170698302D02*
X303403000Y-171461630D01*
X310408503Y-163692799D02*
X303403000Y-170698302D01*
X326675899Y-163692799D02*
X310408503Y-163692799D01*
X332473201Y-157895497D02*
X326675899Y-163692799D01*
X332473201Y-156810503D02*
X332473201Y-157895497D01*
X323668488Y-148005790D02*
X328930000Y-153289000D01*
X301275799Y-145446799D02*
X321087799Y-145446799D01*
X321087799Y-145446799D02*
X328930000Y-153289000D01*
X297846799Y-145446799D02*
X301275799Y-145446799D01*
X301275799Y-145446799D02*
X305657201Y-145446799D01*
X328930000Y-153289000D02*
X332473201Y-156810503D01*
X286639000Y-129921000D02*
X288163000Y-131445000D01*
X286639000Y-115189000D02*
X286639000Y-129921000D01*
X288163000Y-131445000D02*
X301706285Y-144989589D01*
X335013201Y-156810503D02*
X323192287Y-144989589D01*
X335013201Y-157895497D02*
X335013201Y-156810503D01*
X323192287Y-144989589D02*
X321437000Y-144989589D01*
X332532089Y-158483201D02*
X334425497Y-158483201D01*
X326865281Y-164150009D02*
X332532089Y-158483201D01*
X314385992Y-164150008D02*
X326865281Y-164150009D01*
X334425497Y-158483201D02*
X335013201Y-157895497D01*
X305943000Y-172593000D02*
X314385992Y-164150008D01*
X323192287Y-144989589D02*
X301706285Y-144989589D01*
X290703000Y-100203000D02*
X286639000Y-96139000D01*
X290703000Y-130259698D02*
X290703000Y-100203000D01*
X304975681Y-144532379D02*
X290703000Y-130259698D01*
X323381669Y-144532379D02*
X304975681Y-144532379D01*
X334425497Y-161023201D02*
X335470411Y-159978287D01*
X333514799Y-161023201D02*
X334425497Y-161023201D01*
X335470411Y-159978287D02*
X335470411Y-156621121D01*
X329930782Y-164607218D02*
X333514799Y-161023201D01*
X335470411Y-156621121D02*
X323381669Y-144532379D01*
X316468782Y-164607218D02*
X329930782Y-164607218D01*
X308483000Y-172593000D02*
X316468782Y-164607218D01*
X286639000Y-77089000D02*
X291160210Y-81610210D01*
X291160210Y-123996908D02*
X311238472Y-144075170D01*
X291160210Y-81610210D02*
X291160210Y-123996908D01*
X323571052Y-144075170D02*
X311238472Y-144075170D01*
X335927620Y-156431738D02*
X323571052Y-144075170D01*
X335927620Y-162061078D02*
X335927620Y-156431738D01*
X334425497Y-163563201D02*
X335927620Y-162061078D01*
X333514799Y-163563201D02*
X334425497Y-163563201D01*
X332013573Y-165064427D02*
X333514799Y-163563201D01*
X318551573Y-165064427D02*
X332013573Y-165064427D01*
X311023000Y-172593000D02*
X318551573Y-165064427D01*
X323760434Y-143617960D02*
X315067961Y-143617961D01*
X315067961Y-143617961D02*
X305689000Y-134239000D01*
X336384829Y-156242355D02*
X323760434Y-143617960D01*
X336384829Y-164143869D02*
X336384829Y-156242355D01*
X334425497Y-166103201D02*
X336384829Y-164143869D01*
X320052799Y-166103201D02*
X334425497Y-166103201D01*
X313563000Y-172593000D02*
X320052799Y-166103201D01*
X334425497Y-168643201D02*
X320052799Y-168643201D01*
X336842038Y-166226660D02*
X334425497Y-168643201D01*
X320052799Y-168643201D02*
X316103000Y-172593000D01*
X305689000Y-129635698D02*
X319214054Y-143160752D01*
X305689000Y-115189000D02*
X305689000Y-129635698D01*
X323949818Y-143160752D02*
X319214054Y-143160752D01*
X336842038Y-156052972D02*
X323949818Y-143160752D01*
X336842038Y-166226660D02*
X336842038Y-156052972D01*
X322250241Y-142703543D02*
X309753000Y-130206302D01*
X324139200Y-142703542D02*
X322250241Y-142703543D01*
X309753000Y-130206302D02*
X309753000Y-100203000D01*
X320052799Y-171183201D02*
X334425497Y-171183201D01*
X337299247Y-168309451D02*
X337299247Y-155863589D01*
X309753000Y-100203000D02*
X305689000Y-96139000D01*
X334425497Y-171183201D02*
X337299247Y-168309451D01*
X337299247Y-155863589D02*
X324139200Y-142703542D01*
X318643000Y-172593000D02*
X320052799Y-171183201D01*
X324142037Y-175552037D02*
X321183000Y-172593000D01*
X339585296Y-171149770D02*
X335183029Y-175552037D01*
X335183029Y-175552037D02*
X324142037Y-175552037D01*
X339598000Y-143232816D02*
X339598000Y-147955000D01*
X339598000Y-147955000D02*
X339585296Y-171149770D01*
X339594024Y-145792024D02*
X339598000Y-147955000D01*
X329184000Y-81534000D02*
X329260210Y-81610210D01*
X324739000Y-77089000D02*
X329184000Y-81534000D01*
X329260210Y-81610210D02*
X329260210Y-132895026D01*
X329703592Y-133338408D02*
X339598000Y-143232816D01*
X329260210Y-132895026D02*
X329703592Y-133338408D01*
X329438000Y-133072816D02*
X329703592Y-133338408D01*
X334993646Y-175094828D02*
X339128086Y-170960388D01*
X326224828Y-175094828D02*
X334993646Y-175094828D01*
X323723000Y-172593000D02*
X326224828Y-175094828D01*
X324739000Y-96139000D02*
X328803000Y-100203000D01*
X328803000Y-129032000D02*
X328803000Y-133084408D01*
X328803000Y-100203000D02*
X328803000Y-129032000D01*
X328803000Y-133084408D02*
X328803000Y-129667000D01*
X339128085Y-143409493D02*
X328803000Y-133084408D01*
X339128086Y-170960388D02*
X339128085Y-143409493D01*
X328803000Y-129667000D02*
X328803000Y-130175000D01*
X328803000Y-129032000D02*
X328803000Y-129667000D01*
X324739000Y-115189000D02*
X324739000Y-129667000D01*
X334804263Y-174637619D02*
X338670876Y-170771006D01*
X326263000Y-172593000D02*
X328307619Y-174637619D01*
X328307619Y-174637619D02*
X334804263Y-174637619D01*
X338670876Y-170771006D02*
X338670876Y-143598876D01*
X338670876Y-143598876D02*
X338391500Y-143319500D01*
X338391500Y-143319500D02*
X338582000Y-143510000D01*
X324739000Y-129667000D02*
X338391500Y-143319500D01*
X325838999Y-135338999D02*
X324739000Y-134239000D01*
X338213666Y-147713666D02*
X325838999Y-135338999D01*
X338213666Y-170581624D02*
X338213666Y-147713666D01*
X334614880Y-174180410D02*
X338213666Y-170581624D01*
X330390410Y-174180410D02*
X334614880Y-174180410D01*
X328803000Y-172593000D02*
X330390410Y-174180410D01*
X305689000Y-77089000D02*
X310210210Y-81610210D01*
X337756456Y-151574456D02*
X310261000Y-124079000D01*
X337756456Y-170392242D02*
X337756456Y-151574456D01*
X334425497Y-173723201D02*
X337756456Y-170392242D01*
X331343000Y-172593000D02*
X332473201Y-173723201D01*
X332473201Y-173723201D02*
X334425497Y-173723201D01*
X310210210Y-81610210D02*
X310261000Y-124079000D01*
X239903000Y-138557000D02*
X241312799Y-139966799D01*
X216166799Y-139966799D02*
X214757000Y-138557000D01*
X241312799Y-139966799D02*
X243573201Y-139966799D01*
X165874799Y-139966799D02*
X164465000Y-138557000D01*
X218706799Y-139966799D02*
X216166799Y-139966799D01*
X243573201Y-139966799D02*
X218706799Y-139966799D01*
X115582799Y-139966799D02*
X114173000Y-138557000D01*
X169176799Y-139966799D02*
X165874799Y-139966799D01*
X218706799Y-139966799D02*
X169176799Y-139966799D01*
X117843201Y-139966799D02*
X90436799Y-139966799D01*
X90436799Y-139966799D02*
X89027000Y-138557000D01*
X117843201Y-139966799D02*
X115582799Y-139966799D01*
X169176799Y-139966799D02*
X117843201Y-139966799D01*
X309854580Y-153644580D02*
X267205764Y-153644580D01*
X313563000Y-157353000D02*
X309854580Y-153644580D01*
X249186799Y-139966799D02*
X250456799Y-139966799D01*
X243573201Y-139966799D02*
X249186799Y-139966799D01*
X253527983Y-139966799D02*
X267205764Y-153644580D01*
X249186799Y-139966799D02*
X253527983Y-139966799D01*
X307771790Y-154101790D02*
X267016382Y-154101790D01*
X311023000Y-157353000D02*
X307771790Y-154101790D01*
X239903000Y-141097000D02*
X241312799Y-142506799D01*
X216166799Y-142506799D02*
X214757000Y-141097000D01*
X241312799Y-142506799D02*
X245376799Y-142506799D01*
X165874799Y-142506799D02*
X164465000Y-141097000D01*
X218706799Y-142506799D02*
X216166799Y-142506799D01*
X245376799Y-142506799D02*
X218706799Y-142506799D01*
X115582799Y-142506799D02*
X114173000Y-141097000D01*
X167373201Y-142506799D02*
X165874799Y-142506799D01*
X218706799Y-142506799D02*
X167373201Y-142506799D01*
X119113201Y-142506799D02*
X90436799Y-142506799D01*
X119113201Y-142506799D02*
X115582799Y-142506799D01*
X90436799Y-142506799D02*
X89027000Y-141097000D01*
X167373201Y-142506799D02*
X119113201Y-142506799D01*
X250456799Y-142506799D02*
X255421391Y-142506799D01*
X245376799Y-142506799D02*
X250456799Y-142506799D01*
X250456799Y-142506799D02*
X251726799Y-142506799D01*
X255421391Y-142506799D02*
X257117296Y-144202704D01*
X267016382Y-154101790D02*
X257117296Y-144202704D01*
X308483000Y-157353000D02*
X305689000Y-154559000D01*
X271399000Y-154559000D02*
X266827000Y-154559000D01*
X305689000Y-154559000D02*
X271399000Y-154559000D01*
X271399000Y-154559000D02*
X268605000Y-154559000D01*
X239903000Y-143637000D02*
X241312799Y-145046799D01*
X216166799Y-145046799D02*
X214757000Y-143637000D01*
X241312799Y-145046799D02*
X244106799Y-145046799D01*
X165874799Y-145046799D02*
X164465000Y-143637000D01*
X218173201Y-145046799D02*
X216166799Y-145046799D01*
X244106799Y-145046799D02*
X218173201Y-145046799D01*
X115582799Y-145046799D02*
X114173000Y-143637000D01*
X167906799Y-145046799D02*
X165874799Y-145046799D01*
X218173201Y-145046799D02*
X167906799Y-145046799D01*
X90436799Y-145046799D02*
X89027000Y-143637000D01*
X117843201Y-145046799D02*
X90436799Y-145046799D01*
X117843201Y-145046799D02*
X115582799Y-145046799D01*
X167906799Y-145046799D02*
X117843201Y-145046799D01*
X252463201Y-145046799D02*
X257314799Y-145046799D01*
X257314799Y-145046799D02*
X266827000Y-154559000D01*
X252463201Y-145046799D02*
X252996799Y-145046799D01*
X244106799Y-145046799D02*
X252463201Y-145046799D01*
X266950738Y-155329330D02*
X305426670Y-155329330D01*
X262878408Y-151257000D02*
X266950738Y-155329330D01*
X247523000Y-151257000D02*
X262878408Y-151257000D01*
X319557370Y-153187370D02*
X276340068Y-153187370D01*
X258426349Y-135273651D02*
X226676349Y-135273651D01*
X276340068Y-153187370D02*
X258426349Y-135273651D01*
X226676349Y-135273651D02*
X225425000Y-136525000D01*
X323723000Y-157353000D02*
X319557370Y-153187370D01*
X176911000Y-135001000D02*
X175387000Y-136525000D01*
X177095559Y-134816441D02*
X176911000Y-135001000D01*
X321640160Y-152730160D02*
X276529450Y-152730160D01*
X276529449Y-152730159D02*
X258615731Y-134816441D01*
X258615731Y-134816441D02*
X177095559Y-134816441D01*
X326263000Y-157353000D02*
X321640160Y-152730160D01*
X323722950Y-152272950D02*
X276718832Y-152272950D01*
X258805113Y-134359231D02*
X127260769Y-134359231D01*
X259707941Y-135262059D02*
X258805113Y-134359231D01*
X276718832Y-152272950D02*
X259707941Y-135262059D01*
X127260769Y-134359231D02*
X125095000Y-136525000D01*
X328803000Y-157353000D02*
X323722950Y-152272950D01*
X325805740Y-151815740D02*
X276908214Y-151815740D01*
X258994495Y-133902021D02*
X102317979Y-133902021D01*
X260031237Y-134938763D02*
X258994495Y-133902021D01*
X260031237Y-134938763D02*
X259396237Y-134303763D01*
X276908214Y-151815740D02*
X260031237Y-134938763D01*
X331343000Y-157353000D02*
X325805740Y-151815740D01*
X80351000Y-87249000D02*
X86841210Y-93739210D01*
X86841210Y-143991210D02*
X89027000Y-146177000D01*
X86841210Y-123978790D02*
X86841210Y-143991210D01*
X86841210Y-93739210D02*
X86841210Y-123978790D01*
X80351000Y-112395000D02*
X81581201Y-113625201D01*
X81581201Y-141271201D02*
X89027000Y-148717000D01*
X81581201Y-133651201D02*
X81581201Y-141271201D01*
X81581201Y-113625201D02*
X81581201Y-133651201D01*
X80351000Y-142581000D02*
X89027000Y-151257000D01*
X80351000Y-137541000D02*
X80351000Y-142581000D01*
X89027000Y-154011000D02*
X89027000Y-153797000D01*
X80351000Y-162687000D02*
X89027000Y-154011000D01*
X96647000Y-171958000D02*
X91694000Y-176911000D01*
X96647000Y-156337000D02*
X96647000Y-171958000D01*
X98806000Y-93940000D02*
X98806000Y-132334000D01*
X105497000Y-87249000D02*
X98806000Y-93940000D01*
X105497000Y-128416000D02*
X105497000Y-112395000D01*
X111576683Y-151257000D02*
X114173000Y-151257000D01*
X105497000Y-157336683D02*
X111576683Y-151257000D01*
X105497000Y-162687000D02*
X105497000Y-157336683D01*
X111987210Y-155982790D02*
X114173000Y-153797000D01*
X111987210Y-181342790D02*
X111987210Y-155982790D01*
X105497000Y-187833000D02*
X111987210Y-181342790D01*
X131912799Y-88518799D02*
X130643000Y-87249000D01*
X131912799Y-117007201D02*
X117475000Y-131445000D01*
X131912799Y-115737201D02*
X131912799Y-88518799D01*
X131912799Y-117007201D02*
X131912799Y-115737201D01*
X130643000Y-117007000D02*
X116205000Y-131445000D01*
X130643000Y-115737000D02*
X130643000Y-117007000D01*
X130643000Y-112395000D02*
X130643000Y-115737000D01*
X121793000Y-153837000D02*
X121793000Y-153797000D01*
X130643000Y-162647000D02*
X130643000Y-162687000D01*
X121793000Y-153797000D02*
X130643000Y-162647000D01*
X121793000Y-178983000D02*
X121793000Y-156337000D01*
X130643000Y-187833000D02*
X121793000Y-178983000D01*
X155789000Y-87249000D02*
X155789000Y-97444683D01*
X155789000Y-97444683D02*
X123825000Y-129408683D01*
X123825000Y-131445000D02*
X123825000Y-129408683D01*
X162279210Y-153442790D02*
X164465000Y-151257000D01*
X162279210Y-156196790D02*
X162279210Y-153442790D01*
X155789000Y-162687000D02*
X162279210Y-156196790D01*
X164465000Y-154011000D02*
X164465000Y-153797000D01*
X163334799Y-154927201D02*
X164465000Y-153797000D01*
X163334799Y-159461899D02*
X163334799Y-154927201D01*
X155789000Y-167007698D02*
X163334799Y-159461899D01*
X155789000Y-187833000D02*
X155789000Y-167007698D01*
X173355000Y-94829000D02*
X180935000Y-87249000D01*
X173355000Y-130175000D02*
X173355000Y-94829000D01*
X180935000Y-112395000D02*
X180935000Y-128945000D01*
X180935000Y-128945000D02*
X179705000Y-130175000D01*
X174585000Y-156337000D02*
X172085000Y-156337000D01*
X180935000Y-162687000D02*
X174585000Y-156337000D01*
X214700683Y-148717000D02*
X214757000Y-148717000D01*
X202350799Y-166417201D02*
X202350799Y-161066884D01*
X202350799Y-161066884D02*
X214700683Y-148717000D01*
X180935000Y-187833000D02*
X202350799Y-166417201D01*
X224155000Y-128905000D02*
X212725000Y-117475000D01*
X212725000Y-93893000D02*
X206081000Y-87249000D01*
X212725000Y-117475000D02*
X212725000Y-93893000D01*
X206081000Y-112395000D02*
X223861000Y-130175000D01*
X223861000Y-130175000D02*
X223861000Y-130175000D01*
X212571210Y-153442790D02*
X214757000Y-151257000D01*
X212571210Y-156196790D02*
X212571210Y-153442790D01*
X206081000Y-162687000D02*
X212571210Y-156196790D01*
X213626799Y-154927201D02*
X214757000Y-153797000D01*
X213626799Y-159461899D02*
X213626799Y-154927201D01*
X206081000Y-167007698D02*
X213626799Y-159461899D01*
X206081000Y-187833000D02*
X206081000Y-167007698D01*
X229957201Y-88518799D02*
X231227000Y-87249000D01*
X229957201Y-130897201D02*
X229965201Y-130905201D01*
X229957201Y-128357201D02*
X229957201Y-88518799D01*
X229957201Y-129452799D02*
X229957201Y-128357201D01*
X229957201Y-128357201D02*
X229957201Y-130897201D01*
X231227000Y-125643000D02*
X231227000Y-129453000D01*
X231227000Y-125643000D02*
X231227000Y-128357000D01*
X231227000Y-112395000D02*
X231227000Y-125643000D01*
X239846683Y-148717000D02*
X239903000Y-148717000D01*
X231227000Y-157336683D02*
X239846683Y-148717000D01*
X231227000Y-162687000D02*
X231227000Y-157336683D01*
X238772799Y-152387201D02*
X239903000Y-151257000D01*
X238772799Y-159461899D02*
X238772799Y-152387201D01*
X231227000Y-167007698D02*
X238772799Y-159461899D01*
X231227000Y-187833000D02*
X231227000Y-167007698D01*
X256373000Y-87249000D02*
X249555000Y-94067000D01*
X249555000Y-94067000D02*
X249555000Y-131261010D01*
X256373000Y-128437000D02*
X256373000Y-120483000D01*
X254635000Y-130175000D02*
X256373000Y-128437000D01*
X256373000Y-112395000D02*
X256373000Y-120483000D01*
X250023000Y-156337000D02*
X247523000Y-156337000D01*
X256373000Y-162687000D02*
X250023000Y-156337000D01*
X256373000Y-170267000D02*
X256373000Y-187833000D01*
X239903000Y-153797000D02*
X256373000Y-170267000D01*
X157058799Y-113664799D02*
X155789000Y-112395000D01*
X157058799Y-130388799D02*
X157058799Y-113664799D01*
M02*
